<svg id="DII_Icon" data-name="DII Icon" xmlns="http://www.w3.org/2000/svg" viewBox="0 0 447.64 382.43"><defs><style>.cls-1{fill:#ffcb05}.cls-2{fill:#540000}</style></defs><path class="cls-1" d="M499.29 101.52c1.83 9.22 1.69 16.38-8.24 20.71-5.09 2.23.54 9.94-6.2 13-7.92 3.61-10.58-16.1-10.58-16.1-6.64 9.05-4.22 14.59-1.4 22.36 1.06 2.92 2.43 7-2.37 11-3.54 3-11.86 6.42-20.41-.55-4.53-3.71-8.26-13.85-4.42-17.8 7.09-7.29 1.72-18.31 1.72-18.31-.14 7.63-4.38 11.31-10.14 13-3.62 1.06-6.21 4.66-4 13.52s2.16 17-3.67 16c-10.18-1.7-3.82-16.68-8.74-19.81-3.18-2-7.76 2.89-11.08 1.56s-4.44-4.66-2.89-10.42.22-14.19-2.74-17.42c-6.26-6.83.14-15.19.41-15.54-11.72 5.36-6.63 12.23-9.72 24.89-2.78 11.37-10.56 6.07-13.89 19.82s1.56 10.42 8.21 11.85 6.43 7 6.87 13 7.32 5.09 8 10.19-4.43 9.76-8.64 10.2-13.08-6.65-13.75-12.41-6.29-9.92-13.22-11.06c-10.12-1.67-11.51-17.08-11.51-17.08-.84 6.41-6 16.89 3.8 26.18a10.93 10.93 0 0 1 2.31 13.54c-2.88 4.87-13.75-.67-17.07-4s-8-1.1-12.42 3.33c-3.93 3.93-6.31-8.24-4-14.19 4-10.2-9.21-21.07-9.21-21.07.29 2.26 6 9.75-5.1 18.63-6.68 5.35-.22 10.75.45 20.5s-8.43 3.88-8.4 13.9c0 9 17.07 15.14 8.17 21.8-5.41 4-16.21.85-17.11-7.8-.64-6.15-4.06-8.22-9.05-12.16-10.37-8.21 8.18-30.26 8.64-30.8-23.27 12.4-25.26 18.17-22.16 33.46 2.14 10.54-5.58 17.11-12.41 12.2-3.73-2.68-6-7.2-3.55-14.64 2.63-7.86-2.35-20 6.37-28.25 12.19-11.57 5.54-28.82-10-36.24-9.1-4.35-9.31-19.19-9.31-19.19-12.86 20.4 2.54 28.35 2.88 38.8.67 19.95-15.18 27.13-15.18 27.13 0-1.77 7.87-10.95-.33-19.37-3.05-3.14-8.43-6.21-4.92-13.12C233.62 146.24 224 134 224 134c.27 7.91 2.21 17.06-6.42 21.25-5.87 2.85 0 13.75-2.44 17.74s-8.07 8.45-15.38 4.37c-8.56-4.77-3.16-15.24.38-20.19 5.65-7.91-2.44-20.12-2.9-20.78.13.56 1.57 7.66-6.26 13.76-10.26 8-8 16.92-8.18 20.47S180 181.7 175.19 182c-4.49.26-6.25-7.35-.28-14.7 2.68-3.31 0-19.42 0-19.42-1.39 4.58-2.64 8-8.88 10.54-5.9 2.36-6.52 14.29-6.52 14.29s.34-6.42-5.41-9.57c-9.16-5-4.19-16.8-4-17.19-13.16 5.27-6.78 17-9.19 19.25-2.88 2.7-7.53.92-12.86-4s-5.26-12.67-1.77-18.63 12.3-4.75 17.74-9.53 4.43-10.86.88-16.85c-3-5 4.22-14.41 4.22-14.41-8.86-.27-14.34 4.28-15 14.43-.41 6.8-4.56 7.94-9.29 7.21-11.65-1.8-5.83-15.53-5.83-15.53s-11.57.7-11.23 16.23c.14 6.38-3.45 10-11.65 11.09s-10.23-10.59-6.24-15.58 1.78-13.19 1.78-13.19-2 4.21-8.43 8.2-5.7 5.82-6.8 11.14 2.08 13.87-2.87 13.7c-10.87-.39-4.48-23.41-4.48-23.41-6.88 6.43-16.68 19.09-4 40.08 4.32 7.16 9.6 13.6 27.87 36.1 6.83 8.41 15.35 14.61 20 18.15s22.61 26.38 25 29.71 8.79 13.83 5.91 19.6-.06 169.7-1.39 174.58c-1 3.86-8.58 13.62-15.25 22.3-3 4-5.91 7.73-7.88 10.58-2.24 3.24-3.33 5.33-2.22 5.27 4.21-.23 17.74 3.1 29.27.66 2.4-.5 17.32-.7 39.5-.71h16c90.41.23 259.18 2.43 263 .57 3.27-1.59.32-4.08-3.52-6.51-3.38-2.12-7.46-4.19-8.6-5.54-2.44-2.88-17.61-21-23-22.5-7.55-2.06-.12-172.84-.34-183.25-.09-4 2.43-10.2 4-14.64s37.24-42.5 43.45-50c3.85-4.68 8.41-8.67 12.08-13.91a1 1 0 0 1 .08-.11 35.61 35.61 0 0 0 5.31-11.35c2.83-10.67-4.34-16.05 9.5-36.27 8.15-11.74-4.56-27.36-4.56-27.36ZM268.77 272.59c21.93 0 33.2 6.32 38.79 11.62 12.44 11.79 12.82 35.28 13.06 49.34 0 1.13 0 2.19.06 3.18.28 12-2.3 36.62-13.7 52.83-10.32 14.65-18.59 14.65-21.31 14.65h-23.52c0-11.3-.17-120.75-.19-131.58H268.77Z" transform="translate(-58.94 -96.79)"/><path class="cls-2" d="M90.19 167.56a1.56 1.56 0 0 1 2.42-1.92c10.41 10.19 32 27.93 61.6 35.05C196.9 211 244.72 205 244.72 205s3.19-.58.83 1.72-14.14 11.58-18.43 18.1-10 12.47-10 47.54-.28 132.64-.28 139.57.28 31.46 12.75 40.33c12 8.5 20.48 9.75 21.16 9.83h.11c.63.14 6.23 1.37 7.15 3.59 0 0 1 1.53-2.64 1.53H110.94a1.4 1.4 0 0 1-.54-.1c-.57-.2-1.75-.75-1.65-1.7.14-1.25 4-2.64 9.15-4.44a60.79 60.79 0 0 0 22-14c7.62-7.76 9.28-10.25 9.28-26.47V260.57c0-7.9-.55-15.67-6.65-25.78s-9.28-15.53-24.25-31.33c-10.77-11.4-21.93-25.77-28.09-35.9Z" transform="translate(-58.94 -96.79)"/><path class="cls-1" d="m438.44 241 .23-.38c5.7-9.47 8.57-14.23 22.45-28.89C472.35 199.87 484 185 490.8 173.79a13.56 13.56 0 0 0-21.07-16.73c-9.37 9.16-29.09 25.49-56 32-15.7 3.78-34 5.69-54.48 5.69a295.2 295.2 0 0 1-31.59-1.61 15.92 15.92 0 0 0-2.37-.18 12.67 12.67 0 0 0-12 7.82c-.75 1.86-2.73 8.4 3.58 14.56.82.8 2 1.79 3.56 3.16 3.25 2.8 10.87 9.37 13.23 12.95.31.47.62.93.94 1.39 3.31 4.89 7.06 10.44 7.06 39.55 0 24.29.14 79.14.22 111.91 0 14.83.06 25.54.06 27.66 0 18.48-4 27.9-7.71 30.55-8.61 6.13-14.74 7.51-15.7 7.7l-.66.05-.24.1a29.07 29.07 0 0 0-9.65 3.62c-29.2-1.59-50.77-2.78-54.56-3.58-.33-.07-.64-.12-1-.17s-6.7-1.23-15.82-7.72c-3.73-2.65-7.71-12.07-7.71-30.55 0-2.12 0-12.83.06-27.66.08-32.77.22-87.62.22-111.91 0-29.11 3.75-34.66 7.06-39.55.32-.46.63-.92.94-1.39 2.36-3.58 16-15.31 16.79-16.11 6.31-6.16 4.33-12.7 3.58-14.56a12.67 12.67 0 0 0-12-7.82 15.92 15.92 0 0 0-2.37.18 294.13 294.13 0 0 1-31.59 1.61c-20.45 0-38.78-1.91-54.48-5.69-26.93-6.47-46.65-22.8-56-32a13.47 13.47 0 0 0-9.46-3.88 13.57 13.57 0 0 0-11.61 20.61c6.8 11.19 18.45 26.08 29.68 37.92 13.88 14.66 16.75 19.42 22.45 28.89l.23.38c4.58 7.59 4.93 12.91 4.93 19.59v159.94c0 4.42-.11 9.8-1 12.16-.47 1.25-1.51 2.52-4.84 5.9a49.05 49.05 0 0 1-17.46 11.09c-3.06 1.07-5.37 1.9-7.36 2.79-5.89 2.63-9.17 6.55-9.73 11.64-.7 6.25 3.11 12 9.47 14.31a13.58 13.58 0 0 0 4.64.82h350.57l1.52-.41c7.1-1.89 11.53-7.94 10.77-14.72-.56-5.09-3.84-9-9.73-11.64-2-.89-4.3-1.72-7.36-2.79a49.05 49.05 0 0 1-17.46-11.09c-3.33-3.38-4.37-4.65-4.84-5.9-.89-2.36-1-7.74-1-12.16V260.57c-.01-6.68.35-12 4.93-19.57Zm-183 226.24h-144.5a1.4 1.4 0 0 1-.54-.1c-.57-.2-1.75-.75-1.65-1.7.14-1.25 4-2.64 9.15-4.44a60.79 60.79 0 0 0 22-14c7.62-7.76 9.28-10.25 9.28-26.47V260.57c0-7.91-.55-15.67-6.65-25.78s-9.28-15.53-24.25-31.33c-10.81-11.4-22-25.77-28.13-35.9a1.57 1.57 0 0 1 1.35-2.38 1.53 1.53 0 0 1 1.07.46c10.41 10.18 32 27.93 61.6 35.05 19.75 4.74 40.59 6 57.29 6a297.59 297.59 0 0 0 33.26-1.69 4.41 4.41 0 0 1 .74-.07c.77 0 1.66.26.09 1.79-2.35 2.3-14.14 11.58-18.43 18.1s-10 12.47-10 47.54-.28 132.64-.28 139.57.28 31.46 12.75 40.33c12 8.5 20.48 9.75 21.16 9.83h.11c.63.14 6.23 1.37 7.15 3.59-.01.01.99 1.54-2.62 1.54ZM430.79 447a60.79 60.79 0 0 0 22 14c5.13 1.8 9 3.19 9.15 4.44s-1.94 1.8-1.94 1.8h-86.55a12.72 12.72 0 0 0-1.28-6.84c-.86-1.79-16.37-3.38-36.25-4.75 1.65-1 3.38-2.09 5.2-3.38 12.47-8.87 12.75-33.4 12.75-40.33s-.28-104.51-.28-139.57-5.68-41-10-47.54-16.08-15.8-18.43-18.1c-1.57-1.53-.68-1.79.09-1.79a4.41 4.41 0 0 1 .74.07 297.59 297.59 0 0 0 33.22 1.72c16.7 0 37.54-1.28 57.29-6 29.63-7.12 51.19-24.87 61.6-35.05a1.53 1.53 0 0 1 1.07-.46 1.57 1.57 0 0 1 1.35 2.38c-6.16 10.13-17.32 24.5-28.13 35.9-15 15.8-18.15 21.21-24.25 31.33s-6.66 17.87-6.66 25.78v159.9c.02 16.22 1.69 18.71 9.31 26.49Z" transform="translate(-58.94 -96.79)"/><path class="cls-2" d="M480.54 167.56a1.56 1.56 0 0 0-2.42-1.92c-10.41 10.19-32 27.93-61.6 35.05C373.83 211 326 205 326 205s-3.19-.58-.83 1.72 14.13 11.58 18.43 18.1 10 12.47 10 47.54.28 132.64.28 139.57-.28 31.46-12.75 40.33-21.21 9.84-21.21 9.84-6.24 1.25-7.21 3.6c0 0-1 1.53 2.64 1.53H460s2.07-.56 1.94-1.8-4-2.64-9.15-4.44a60.79 60.79 0 0 1-22-14c-7.62-7.76-9.29-10.25-9.29-26.47V260.57c0-7.9.56-15.67 6.66-25.78s9.28-15.53 24.25-31.33c10.81-11.4 21.97-25.77 28.13-35.9Z" transform="translate(-58.94 -96.79)"/><path d="M353.59 275.94a63.52 63.52 0 0 0-4.34-6.47c-2.51-3.3-5.1-6.53-7.94-9.61-12.17-13.2-28.84-23.5-63.25-23.5h-68.9a5.87 5.87 0 0 0-5.86 5.86v4a5.83 5.83 0 0 0 5.33 5.83c3.12.28 7.15 1.28 9.08 3.19a4.15 4.15 0 0 1 .64.77c2.4 3.77 3.09 5.33 3.09 16v132.14c0 .08.36 7.24-4.55 11.14l-.23.18c-19.82 14.87-26.35 37.33-28.48 49.39a5.85 5.85 0 0 0 .07 2.36 5.67 5.67 0 0 0 1.19 2.42 5.87 5.87 0 0 0 9.32-.42c.43-.61.9-1.29 1.43-2 4.19-5.67 11.43-14.08 20.44-18.66 1.27-.65 2.55-1.22 3.81-1.74a55.41 55.41 0 0 1 13.4-3.47 49.33 49.33 0 0 1 6.18-.43h48.17c9.22 0 23.52-1.77 41.21-17.1a66.71 66.71 0 0 0 8.3-8.68 95.48 95.48 0 0 0 12.09-19.7 132.67 132.67 0 0 0 12-55c.05-27.97-2.12-49.39-12.2-66.5ZM258 408.39a9.85 9.85 0 0 1-.33-3.42c0-5.55-.2-131.91-.2-133.18a18.69 18.69 0 0 1 .19-3.34c1.33-.35 5-.35 8.5-.35h2.62c23.42 0 35.7 7 41.89 12.85 13.78 13.06 14.2 37.77 14.46 52.53 0 1.12 0 2.17.06 3.16.29 12.54-2.44 38.35-14.52 55.52-11.66 16.56-21.7 16.56-25 16.56h-25.09a6.73 6.73 0 0 1-2.58-.33Z" transform="translate(-58.94 -96.79)"/><path d="M353.55 267.72c-.23-.33-.47-.65-.72-1a115.67 115.67 0 0 0-12-13.78c-12.46-11.87-30.22-21.1-62.74-21.1h-68.9a10.37 10.37 0 0 0-10.36 10.36v4a10.31 10.31 0 0 0 9.42 10.31c3.57.32 5.88 1.4 6.36 1.93 1.86 2.93 2.36 3.76 2.36 13.6v132.41a12.9 12.9 0 0 1-.09 1.53c-.2 1.7-.86 4.36-2.9 5.89-21.05 15.8-28 39.49-30.21 52.21a9.75 9.75 0 0 0-.06 3.14 10.13 10.13 0 0 0 2.23 5.22l.07.09a10.36 10.36 0 0 0 15.95-.07c.18-.22.36-.44.52-.68.9-1.3 2.05-2.87 3.4-4.56 4-5 9.89-11.12 16.82-14.65a43.93 43.93 0 0 1 4.8-2.09 49.85 49.85 0 0 1 16.5-3.06H292.21c9.94 0 25.33-1.89 44.15-18.2a64.66 64.66 0 0 0 4.72-4.53 89.18 89.18 0 0 0 12.75-17.54c10.27-18.18 16.48-41.58 16.48-64.72.03-32-2.8-55.75-16.76-74.71Zm-11.69 141.72a68.37 68.37 0 0 1-11.36 13c-17.32 15-30.67 16-38.26 16h-48.21a56.58 56.58 0 0 0-10.1 1 57.68 57.68 0 0 0-11.71 3.47c-1.2.5-2.41 1.05-3.62 1.67-10.87 5.54-19.21 15.88-23.53 22.1a1.33 1.33 0 0 1-.87.57h-.49a1.33 1.33 0 0 1-1.09-1.57c1.85-10.5 7.53-30.8 24.54-44.83.72-.6 1.45-1.18 2.21-1.75 7.26-5.45 6.57-15.21 6.57-15.21V272c0-11.21-.77-13.71-3.79-18.47a10.5 10.5 0 0 0-4-3.5 25 25 0 0 0-9.17-2.52 1.36 1.36 0 0 1-1.23-1.35v-4a1.36 1.36 0 0 1 1.36-1.36h68.9c36.56 0 51.94 12.16 63.49 26.11 1.42 1.72 2.78 3.47 4.12 5.23A61.14 61.14 0 0 1 353.6 286c5.87 14.07 7.74 31.89 7.74 56.42a128.73 128.73 0 0 1-7.53 43.16 105 105 0 0 1-11.95 23.86Zm-28.11-131.77c-14.1-13.36-36.38-14.08-45-14.08h-2.62c-11.77 0-13.19 0-13.19 8.19 0 0 .2 127.57.2 133.18s1 8.24 7.42 8.24h25.09c4.76 0 16.13-.65 28.67-18.47s15.66-44 15.33-58.22.35-43.42-15.9-58.84Zm-28.08 126.54h-23.52c0-11.3-.17-120.75-.19-131.58H268.77c21.93 0 33.2 6.32 38.79 11.62 12.44 11.75 12.82 35.24 13.06 49.3 0 1.13 0 2.19.06 3.18.28 12-2.3 36.62-13.7 52.83-10.32 14.65-18.59 14.65-21.31 14.65Zm44-67.69c-.33-14.18.35-43.43-15.92-58.85-14.1-13.36-36.38-14.08-45-14.08h-2.62c-11.77 0-13.19 0-13.19 8.19 0 0 .2 127.57.2 133.18s1 8.24 7.42 8.24h25.09c4.76 0 16.13-.65 28.67-18.47s15.68-44.02 15.35-58.21Zm-44 67.69h-23.52c0-11.3-.17-120.75-.19-131.58H268.77c21.93 0 33.2 6.32 38.79 11.62 12.44 11.75 12.82 35.24 13.06 49.3 0 1.13 0 2.19.06 3.18.28 12-2.3 36.62-13.7 52.83-10.32 14.65-18.59 14.65-21.31 14.65Zm56.19 5.23a68.37 68.37 0 0 1-11.36 13c-17.32 15-30.67 16-38.26 16h-48.21a56.58 56.58 0 0 0-10.1 1 10.09 10.09 0 0 0 2.64 3.06c.43.31.86.6 1.28.88a49.33 49.33 0 0 1 6.18-.43h48.17c9.22 0 23.52-1.77 41.21-17.1a66.71 66.71 0 0 0 8.3-8.68q.12-2.49.12-5.25c.04-.45.04-1.29.03-2.48Zm-81.28 3.77h25.09c4.76 0 16.13-.65 28.67-18.47s15.66-44 15.33-58.22.35-43.43-15.92-58.85c-14.1-13.36-36.38-14.08-45-14.08h-2.62c-11.77 0-13.19 0-13.19 8.19 0 0 .2 127.57.2 133.18s1 8.25 7.44 8.25Zm6.7-140.61h1.49c21.93 0 33.2 6.32 38.79 11.62 12.44 11.78 12.82 35.27 13.06 49.33 0 1.13 0 2.19.06 3.18.28 12-2.3 36.62-13.7 52.83-10.32 14.65-18.59 14.65-21.31 14.65h-23.52c0-11.3-.17-120.75-.19-131.58h4.19Zm-41.34-.6c0-11.21-.77-13.71-3.79-18.47a10.5 10.5 0 0 0-4-3.5c-.18 1.6-.34 3.31-.49 5.15-.36 4.78-.57 10.43-.57 17.14 0 22.46-.11 70.58-.2 104.09v28.01a12.9 12.9 0 0 1-.09 1.53v9.31c0 1.59.11 3.47.26 5.53.72-.6 1.45-1.18 2.21-1.75 7.26-5.45 6.57-15.21 6.57-15.21Z" transform="translate(-58.94 -96.79)" style="fill:#fff"/></svg>