<svg version="1.1" id="Layer_1" xmlns="http://www.w3.org/2000/svg" x="0" y="0" viewBox="0 0 512 512" style="enable-background:new 0 0 512 512" xml:space="preserve"><style>.st2{fill:#f23f00}</style><path d="M495.9 248.6s-55.8-11.8-79.4-52.7c0 0-11.2 19.2-22.9 20.5 0 0 3.1-22.3 17.4-32.2l-17.4-16.7h-40.3s10.5-31 24.8-33.5c0 0-24.2-11.2-40.3 2.5 0 0-52.1 7.4-8.1-33.5 0 0-63.2-24.8-73.8-52.1-10.5 27.3-73.8 52.1-73.8 52.1 44 40.9-8.1 33.5-8.1 33.5-16.1-13.6-40.3-2.5-40.3-2.5 14.3 2.5 24.8 33.5 24.8 33.5h-40.3L101 184.1c14.3 10.5 17.4 32.2 17.4 32.2-11.8-1.9-22.9-20.5-22.9-20.5-22.9 40.9-79.4 52.7-79.4 52.7s55.8 11.8 79.4 52.7c0 0 11.2-19.2 22.9-20.5 0 0-3.1 22.3-17.4 32.2l17.4 16.7h40.3s-10.5 31-24.8 33.5c0 0 24.2 11.2 40.3-2.5 0 0 52.1-7.4 8.1 33.5 0 0 63.2 24.8 73.8 52.1 10.5-27.3 73.8-52.1 73.8-52.1-44-40.9 8.1-33.5 8.1-33.5 16.1 13.6 40.3 2.5 40.3 2.5-14.3-2.5-24.8-33.5-24.8-33.5h40.3L411 313c-14.3-10.5-17.4-32.2-17.4-32.2 11.8 1.9 22.9 20.5 22.9 20.5 23-40.3 79.4-52.1 79.4-52.7z" style="fill:#490005"/><path d="M257.2 10.5c6.2 40.9 9.9 81.2 12.4 122.1s3.1 81.2 3.1 122.1-1.2 81.2-3.1 122.1c-2.5 40.9-5.6 81.2-12.4 122.1-6.2-40.9-9.9-81.2-12.4-122.1s-3.1-81.2-3.1-122.1 1.2-81.2 3.1-122.1c3.1-40.9 6.2-81.8 12.4-122.1z" style="fill:#d80000"/><path class="st2" d="M257.2 8c6.2 41.5 9.9 82.5 12.4 124s3.1 82.5 3.1 124-1.2 82.5-3.1 124c-2.5 41.5-5.6 82.5-12.4 124-6.2-41.5-9.9-82.5-12.4-124s-3.1-82.5-3.1-124 1.2-82.5 3.1-124c3.1-41.5 6.2-82.5 12.4-124zM172.3 58.2c6.2 32.9 9.9 65.7 12.4 98 2.5 32.9 3.1 65.7 3.1 98 0 32.9-1.2 65.7-3.1 98-2.5 32.9-5.6 65.7-12.4 98-6.2-32.9-9.9-65.7-12.4-98-1.9-32.2-3.1-65.1-3.1-97.3 0-32.9 1.2-65.7 3.1-98 2.5-33.6 6.2-65.8 12.4-98.7zM337.8 58.2c6.2 32.9 9.9 65.7 12.4 98 2.5 32.9 3.1 65.7 3.1 98 0 32.9-1.2 65.7-3.1 98-2.5 32.9-5.6 65.7-12.4 98-6.2-32.9-9.9-65.7-12.4-98-2.5-32.9-3.1-65.7-3.1-98 0-32.9 1.2-65.7 3.1-98 2.5-32.9 6.2-65.1 12.4-98z"/><path d="M398 198.3c-12.4-8.7-26-17.4-42.2-21.7 15.5 21.7 33.5 45.9 31 86.2-1.9 31-16.7 52.7-32.9 70.1-17.4 18-39.7 31.6-63.9 37.8-14.3 5-28.5 7.4-43.4 8.1-49 0-99.8-3.1-146.9 2.5-.6-4.3-1.2-8.7-2.5-13 19.2-5 45.3-11.2 47.7-33.5 1.2-12.4 1.2-154.4-1.2-164.9-3.1-14.3-31-18.6-45.9-21.7 0-5 1.2-8.1 1.2-13 32.2-4.3 64.5-4.3 99.2-6.2 89.4-3.8 166.3 14.2 199.8 69.3zM210.7 163c-4.3.6-3.1 14.9-3.1 19.2.6 36-.6 78.1-.6 114.1 0 11.2-3.1 35.3 3.7 40.9s32.9 3.7 43.4 2.5c54.6-3.7 78.7-63.9 60.1-116.6-11.8-34.1-38.4-57.7-82.5-60.8-5.5-.5-19.7.7-21 .7z" style="fill:#e8dcc1"/></svg>